<?xml version="1.0" standalone="no"?>
<!DOCTYPE svg PUBLIC "-//W3C//DTD SVG 20010904//EN"
 "http://www.w3.org/TR/2001/REC-SVG-20010904/DTD/svg10.dtd">
<svg version="1.0" xmlns="http://www.w3.org/2000/svg"
 width="96.000000pt" height="96.000000pt" viewBox="0 0 96.000000 96.000000"
 preserveAspectRatio="xMidYMid meet">

<g transform="translate(0.000000,96.000000) scale(0.100000,-0.100000)"
fill="#000000" stroke="none">
<path d="M273 895 c8 -47 42 -93 75 -101 61 -15 112 -52 112 -83 0 -13 -15
-20 -72 -29 -40 -7 -80 -20 -89 -28 -18 -16 -19 -15 -77 22 -2 1 4 16 13 34
19 36 13 47 -43 82 l-35 21 -19 -26 c-18 -24 -26 -27 -79 -27 -32 0 -59 -3
-58 -7 0 -5 23 -25 52 -45 40 -29 61 -38 93 -38 26 0 59 -10 89 -27 l48 -26
-7 -126 c-13 -242 39 -330 252 -434 l83 -40 84 42 c109 56 160 106 212 211 41
82 42 89 48 212 7 119 6 127 -14 147 -14 14 -34 21 -58 21 -61 0 -83 10 -83
35 0 12 -6 28 -14 34 -25 21 -167 36 -240 25 -50 -8 -69 -7 -77 2 -7 9 -1 15
26 24 19 6 35 14 35 16 0 8 -60 124 -64 124 -2 0 -22 -7 -46 -15 -37 -13 -45
-13 -71 0 -16 9 -41 20 -55 25 -26 10 -27 10 -21 -25z m447 -178 c49 -11 55
-15 58 -40 4 -32 32 -47 92 -47 65 0 71 -14 64 -143 -3 -62 -10 -127 -16 -145
-17 -56 -91 -169 -133 -202 -50 -40 -148 -90 -175 -90 -37 0 -180 80 -227 126
-77 78 -90 127 -85 332 l2 93 31 -16 c18 -10 29 -22 25 -30 -13 -35 -18 -183
-6 -224 21 -79 194 -231 262 -231 56 0 171 91 206 163 57 115 66 143 70 219 5
87 10 80 -79 98 -51 10 -57 14 -65 42 -12 39 -40 49 -149 49 -77 0 -94 6 -95
36 0 21 135 27 220 10z m-210 -93 c0 -17 -146 -31 -175 -16 -27 14 -32 30 -12
38 7 2 47 10 88 17 71 13 74 12 86 -7 7 -12 12 -26 13 -32z"/>
</g>
</svg>
